<?xml version="1.0" encoding="utf-8"?>
<!-- Generator: Adobe Illustrator 23.0.1, SVG Export Plug-In . SVG Version: 6.00 Build 0)  -->
<svg version="1.1" id="Layer_1" xmlns="http://www.w3.org/2000/svg" xmlns:xlink="http://www.w3.org/1999/xlink" x="0px" y="0px"
	 viewBox="0 0 920.96 329" style="enable-background:new 0 0 920.96 329;" xml:space="preserve">
<style type="text/css">
	.st0{clip-path:url(#SVGID_2_);}
	.st1{clip-path:url(#SVGID_4_);}
	.st2{clip-path:url(#SVGID_6_);fill:#3B4453;}
	.st3{clip-path:url(#SVGID_6_);fill:#DA1F3D;}
</style>
<g>
	<defs>
		<rect id="SVGID_1_" width="920.96" height="329"/>
	</defs>
	<clipPath id="SVGID_2_">
		<use xlink:href="#SVGID_1_"  style="overflow:visible;"/>
	</clipPath>
	<g class="st0">
		<defs>
			<rect id="SVGID_3_" width="920.96" height="329"/>
		</defs>
		<clipPath id="SVGID_4_">
			<use xlink:href="#SVGID_3_"  style="overflow:visible;"/>
		</clipPath>
		<g class="st1">
			<g>
				<defs>
					<rect id="SVGID_5_" x="-17" y="-13" width="954.96" height="343"/>
				</defs>
				<clipPath id="SVGID_6_">
					<use xlink:href="#SVGID_5_"  style="overflow:visible;"/>
				</clipPath>
				<rect y="225.65" class="st2" width="920.96" height="3.5"/>
				<polygon class="st2" points="193.56,273.06 207.9,273.06 207.9,326.32 214.52,326.32 214.52,273.06 229.01,273.06 
					229.01,266.92 193.56,266.92 				"/>
				<polygon class="st2" points="270.77,326.32 301.58,326.32 301.58,320.18 277.39,320.18 277.39,296.86 300.86,296.86 
					300.86,290.71 277.39,290.71 277.39,273.06 301.58,273.06 301.58,266.92 270.77,266.92 				"/>
				<path class="st2" d="M344.43,296.85c0,16.86,14.18,30.49,30.97,30.49c6.3,0,12.6-2.12,17.73-5.83v-8.2
					c-4.73,4.73-11.27,7.88-17.97,7.88c-13.31,0-24.11-11.51-24.11-24.58c0-13.08,10.71-24.58,23.95-24.58
					c6.85,0,13.39,2.99,18.12,7.88v-8.19c-5.28-3.94-11.11-5.83-17.73-5.83C358.38,265.89,344.43,279.84,344.43,296.85"/>
				<polygon class="st2" points="476.63,291.03 446.21,291.03 446.21,266.92 439.59,266.92 439.59,326.32 446.21,326.32 
					446.21,297.17 476.63,297.17 476.63,326.32 483.24,326.32 483.24,266.92 476.63,266.92 				"/>
				<polygon class="st2" points="577.23,312.93 530.9,264.4 530.9,326.32 537.52,326.32 537.52,280.55 583.85,329 583.85,266.92 
					577.23,266.92 				"/>
				<rect x="631.36" y="266.92" class="st2" width="6.62" height="59.41"/>
				<polygon class="st2" points="725.81,266.92 716.9,266.92 691.61,292.36 691.61,266.92 685,266.92 685,326.32 691.61,326.32 
					691.61,300.72 693.27,299.06 717.61,326.32 726.75,326.32 697.91,294.57 				"/>
				<path class="st3" d="M297.11,67.68h-3.77v19.49h3.41c8.08,0,16.15-1.07,16.15-9.59C312.9,68.74,305.54,67.68,297.11,67.68"/>
				<path class="st3" d="M789.61,38.91h-2.32v5.14h2.06c2.3,0,3.66-1.02,3.66-2.64C793.01,39.88,791.84,38.91,789.61,38.91"/>
				<path class="st3" d="M794.17,53.7l-2.59-5.87c-0.75-1.65-1.55-1.65-2.83-1.65h-1.46v7.52h-2.43V36.78h4.15
					c3.34,0,6.57,0.53,6.57,4.58c0,2.06-1.53,3.51-3.49,3.85v0.05c0.75,0.29,1.12,0.65,1.65,1.7l3.2,6.74H794.17z M790.08,34.31
					c-6.44,0-11.68,5.24-11.68,11.68c0,6.44,5.24,11.67,11.68,11.67c6.44,0,11.68-5.24,11.68-11.67
					C801.76,39.54,796.52,34.31,790.08,34.31"/>
				<path class="st3" d="M790.08,61.33c-8.46,0-15.35-6.89-15.35-15.35c0-8.46,6.89-15.35,15.35-15.35
					c8.47,0,15.35,6.89,15.35,15.35C805.43,54.45,798.54,61.33,790.08,61.33 M712.84,152.95c-17.05,0-36.79-3.96-52.05-10.51
					l15.08-32.43l2.51,1.68c8.8,5.78,19.39,10.51,30.69,10.51c4.85,0,12.56-1.68,12.56-6.86s-6.46-5.63-10.95-6.39l-9.87-1.52
					c-19.21-2.9-35.36-12.48-35.36-30.45c0-27.25,29.26-42.48,58.7-42.48c15.43,0,29.61,3.2,42.89,10.05l-13.28,29.38
					c-8.43-4.87-17.95-8.68-28.54-8.68c-4.31,0-10.59,1.37-10.59,6.09c0,4.26,6.11,4.87,9.88,5.63l11.13,2.13
					c20.82,3.96,35.9,13.4,35.9,32.89C771.53,139.39,742.09,152.95,712.84,152.95 M601.22,152.95c-17.05,0-36.79-3.96-52.05-10.51
					l15.08-32.43l2.51,1.68c8.79,5.78,19.38,10.51,30.69,10.51c4.85,0,12.57-1.68,12.57-6.86s-6.46-5.63-10.95-6.39l-9.87-1.52
					c-19.21-2.9-35.36-12.48-35.36-30.45c0-27.25,29.26-42.48,58.69-42.48c15.44,0,29.62,3.2,42.9,10.05l-13.28,29.38
					c-8.44-4.87-17.95-8.68-28.54-8.68c-4.31,0-10.59,1.37-10.59,6.09c0,4.26,6.1,4.87,9.87,5.63l11.13,2.13
					c20.82,3.96,35.9,13.4,35.9,32.89C659.91,139.39,630.47,152.95,601.22,152.95 M539.59,151.12h-92.44V36.32h91v31.37h-41.46
					v10.96h37.87v29.84h-37.87v11.27h42.9V151.12z M430.62,151.12h-49.18V36.31h49.18V151.12z M315.77,151.12l-21.54-36.85h-0.9
					v36.85h-48.1V36.32h59.41c30.51,0,56.36,10.96,56.36,39.89c0,17.35-7.9,24.66-26.21,29.84v0.91c2.51,1.68,5.57,3.5,8.26,6.85
					l29.44,37.3H315.77z M233.37,69.21h-41.1v11.87h36.08v29.84h-36.08v40.2h-49.54V36.32h90.64V69.21z M825.37,0H97.69v192.94
					h727.68V0z"/>
			</g>
		</g>
	</g>
</g>
</svg>
