<?xml version="1.0" encoding="utf-8"?>
<!-- Generator: Adobe Illustrator 23.0.1, SVG Export Plug-In . SVG Version: 6.00 Build 0)  -->
<svg version="1.1" id="Layer_1" xmlns="http://www.w3.org/2000/svg" xmlns:xlink="http://www.w3.org/1999/xlink" x="0px" y="0px"
	 viewBox="0 0 921 329" style="enable-background:new 0 0 921 329;" xml:space="preserve">
<style type="text/css">
	.st0{fill:#FFFFFF;}
	.st1{fill:#DA1F3D;}
</style>
<g>
	<g>
		<path class="st0" d="M815.4,10H107.7v172.9h707.7V10z"/>
	</g>
	<g>
		<rect y="225.6" class="st0" width="921" height="3.5"/>
	</g>
	<g>
		<g>
			<polygon class="st0" points="193.6,273.1 207.9,273.1 207.9,326.3 214.5,326.3 214.5,273.1 229,273.1 229,266.9 193.6,266.9 			
				"/>
		</g>
		<g>
			<polygon class="st0" points="270.8,326.3 301.6,326.3 301.6,320.2 277.4,320.2 277.4,296.9 300.9,296.9 300.9,290.7 277.4,290.7 
				277.4,273.1 301.6,273.1 301.6,266.9 270.8,266.9 			"/>
		</g>
		<g>
			<path class="st0" d="M344.4,296.9c0,16.9,14.2,30.5,31,30.5c6.3,0,12.6-2.1,17.7-5.8v-8.2c-4.7,4.7-11.3,7.9-18,7.9
				c-13.3,0-24.1-11.5-24.1-24.6c0-13.1,10.7-24.6,24-24.6c6.9,0,13.4,3,18.1,7.9v-8.2c-5.3-3.9-11.1-5.8-17.7-5.8
				C358.4,265.9,344.4,279.8,344.4,296.9"/>
		</g>
		<g>
			<polygon class="st0" points="476.6,291 446.2,291 446.2,266.9 439.6,266.9 439.6,326.3 446.2,326.3 446.2,297.2 476.6,297.2 
				476.6,326.3 483.2,326.3 483.2,266.9 476.6,266.9 			"/>
		</g>
		<g>
			<polygon class="st0" points="577.2,312.9 530.9,264.4 530.9,326.3 537.5,326.3 537.5,280.5 583.8,329 583.8,266.9 577.2,266.9 
							"/>
		</g>
		<g>
			<rect x="631.4" y="266.9" class="st0" width="6.6" height="59.4"/>
		</g>
		<g>
			<polygon class="st0" points="725.8,266.9 716.9,266.9 691.6,292.4 691.6,266.9 685,266.9 685,326.3 691.6,326.3 691.6,300.7 
				693.3,299.1 717.6,326.3 726.8,326.3 697.9,294.6 			"/>
		</g>
	</g>
	<g>
		<path class="st1" d="M297.1,67.7h-3.8v19.5h3.4c8.1,0,16.1-1.1,16.1-9.6C312.9,68.7,305.5,67.7,297.1,67.7"/>
	</g>
	<g>
		<g>
			<path class="st1" d="M789.6,38.9h-2.3V44h2.1c2.3,0,3.7-1,3.7-2.6C793,39.9,791.8,38.9,789.6,38.9"/>
		</g>
		<g>
			<path class="st1" d="M794.2,53.7l-2.6-5.9c-0.8-1.7-1.5-1.7-2.8-1.7h-1.5v7.5h-2.4V36.8h4.2c3.3,0,6.6,0.5,6.6,4.6
				c0,2.1-1.5,3.5-3.5,3.8v0c0.8,0.3,1.1,0.7,1.7,1.7l3.2,6.7C796.9,53.7,794.2,53.7,794.2,53.7z M790.1,34.3
				c-6.4,0-11.7,5.2-11.7,11.7s5.2,11.7,11.7,11.7s11.7-5.2,11.7-11.7C801.8,39.5,796.5,34.3,790.1,34.3"/>
		</g>
	</g>
	<g>
		<path class="st1" d="M790.1,61.3c-8.5,0-15.3-6.9-15.3-15.3s6.9-15.4,15.3-15.4c8.5,0,15.3,6.9,15.3,15.4
			C805.4,54.5,798.5,61.3,790.1,61.3 M712.8,152.9c-17,0-36.8-4-52-10.5l15.1-32.4l2.5,1.7c8.8,5.8,19.4,10.5,30.7,10.5
			c4.8,0,12.6-1.7,12.6-6.9s-6.5-5.6-11-6.4l-9.9-1.5c-19.2-2.9-35.4-12.5-35.4-30.4c0-27.3,29.3-42.5,58.7-42.5
			c15.4,0,29.6,3.2,42.9,10l-13.3,29.4c-8.4-4.9-18-8.7-28.5-8.7c-4.3,0-10.6,1.4-10.6,6.1c0,4.3,6.1,4.9,9.9,5.6l11.1,2.1
			c20.8,4,35.9,13.4,35.9,32.9C771.5,139.4,742.1,152.9,712.8,152.9 M601.2,152.9c-17,0-36.8-4-52-10.5l15.1-32.4l2.5,1.7
			c8.8,5.8,19.4,10.5,30.7,10.5c4.8,0,12.6-1.7,12.6-6.9s-6.5-5.6-11-6.4l-9.9-1.5C570,104.5,553.8,95,553.8,77
			c0-27.3,29.3-42.5,58.7-42.5c15.4,0,29.6,3.2,42.9,10l-13.3,29.4c-8.4-4.9-18-8.7-28.5-8.7c-4.3,0-10.6,1.4-10.6,6.1
			c0,4.3,6.1,4.9,9.9,5.6l11.1,2.1c20.8,4,35.9,13.4,35.9,32.9C659.9,139.4,630.5,152.9,601.2,152.9 M539.6,151.1h-92.4V36.3h91
			v31.4h-41.5v11h37.9v29.8h-37.9v11.3h42.9L539.6,151.1L539.6,151.1z M430.6,151.1h-49.2V36.3h49.2V151.1z M315.8,151.1l-21.5-36.8
			h-0.9v36.8h-48.1V36.3h59.4c30.5,0,56.4,11,56.4,39.9c0,17.3-7.9,24.7-26.2,29.8v0.9c2.5,1.7,5.6,3.5,8.3,6.8l29.4,37.3
			L315.8,151.1L315.8,151.1z M233.4,69.2h-41.1v11.9h36.1v29.8h-36.1v40.2h-49.5V36.3h90.6L233.4,69.2L233.4,69.2z M825.4,0H97.7
			v192.9h727.7V0z"/>
	</g>
</g>
</svg>
